<?xml version="1.0" standalone="no"?>
<!DOCTYPE svg PUBLIC "-//W3C//DTD SVG 20010904//EN"
 "http://www.w3.org/TR/2001/REC-SVG-20010904/DTD/svg10.dtd">
<svg version="1.0" xmlns="http://www.w3.org/2000/svg"
 width="184.000000pt" height="72.000000pt" viewBox="0 0 184.000000 72.000000"
 preserveAspectRatio="xMidYMid meet">
<metadata>
Created by potrace 1.10, written by Peter Selinger 2001-2011
</metadata>
<g transform="translate(0.000000,72.000000) scale(0.100000,-0.100000)"
fill="#000000" stroke="none">
<path d="M385 460 c-3 -5 -15 -10 -26 -10 -10 0 -19 -7 -19 -15 0 -8 7 -15 15
-15 14 0 14 -3 2 -27 -25 -49 -30 -73 -14 -73 8 0 22 21 32 46 19 50 26 48 45
-8 6 -22 18 -38 26 -38 17 0 13 23 -13 73 -12 24 -12 27 2 27 8 0 15 7 15 15
0 8 -9 15 -20 15 -11 0 -20 5 -20 10 0 6 -4 10 -9 10 -6 0 -13 -4 -16 -10z"/>
<path d="M1203 463 c-21 -4 -23 -10 -23 -74 0 -55 3 -69 15 -69 12 0 15 13 15
55 0 34 4 55 11 55 8 0 10 -18 7 -55 -4 -46 -2 -55 11 -53 12 2 14 15 12 56
-2 43 0 52 15 52 15 0 16 -7 10 -55 -6 -56 4 -72 24 -36 12 23 14 108 2 115
-13 8 -76 14 -99 9z"/>
<path d="M1370 460 c0 -5 -9 -10 -20 -10 -11 0 -20 -7 -20 -15 0 -8 7 -15 15
-15 14 0 14 -3 2 -27 -25 -48 -30 -73 -15 -73 8 0 21 19 29 43 19 51 31 51 43
2 8 -33 29 -55 42 -43 2 3 -4 26 -15 52 -17 38 -18 46 -6 46 8 0 15 7 15 15 0
8 -9 15 -20 15 -11 0 -20 5 -20 10 0 6 -7 10 -15 10 -8 0 -15 -4 -15 -10z"/>
<path d="M104 448 c-4 -6 -3 -13 3 -15 6 -2 9 -12 8 -21 -15 -74 -14 -92 6
-92 14 0 19 7 19 28 0 26 2 28 35 24 l35 -4 0 46 0 46 -49 0 c-28 0 -53 -5
-57 -12z m76 -33 c0 -8 -9 -15 -20 -15 -11 0 -20 7 -20 15 0 8 9 15 20 15 11
0 20 -7 20 -15z"/>
<path d="M235 423 c0 -21 -3 -53 -7 -70 l-7 -33 49 0 c38 0 50 4 50 15 0 9
-10 15 -26 15 -21 0 -24 4 -19 20 3 11 2 20 -4 20 -6 0 -7 14 -4 35 5 30 3 35
-14 35 -15 0 -19 -7 -18 -37z"/>
<path d="M465 450 c-4 -6 4 -27 16 -46 18 -30 20 -40 10 -56 -12 -19 -7 -38
10 -38 5 0 22 19 39 42 33 45 42 108 15 108 -10 0 -15 -10 -15 -34 0 -50 -14
-52 -35 -6 -18 41 -29 48 -40 30z"/>
<path d="M633 445 c4 -8 12 -41 19 -75 12 -60 34 -81 40 -38 5 32 28 35 28 4
0 -16 6 -26 15 -26 8 0 15 7 15 15 0 9 7 26 16 40 20 31 15 89 -9 93 -15 3
-17 -2 -11 -37 4 -26 3 -41 -4 -41 -6 0 -13 18 -17 40 -5 30 -11 40 -26 40
-10 0 -19 -7 -19 -15 0 -8 5 -15 10 -15 6 0 10 -11 10 -25 0 -14 -4 -25 -9
-25 -11 0 -21 25 -21 56 0 18 -5 24 -21 24 -14 0 -19 -5 -16 -15z"/>
<path d="M791 390 c0 -64 2 -70 21 -70 18 0 20 4 14 31 -3 17 -6 49 -6 70 0
27 -4 39 -14 39 -11 0 -15 -16 -15 -70z"/>
<path d="M840 445 c0 -8 7 -15 15 -15 10 0 15 -15 17 -57 2 -44 7 -58 18 -58
15 0 17 36 5 93 -4 17 -1 22 15 22 11 0 20 7 20 15 0 11 -12 15 -45 15 -33 0
-45 -4 -45 -15z"/>
<path d="M940 390 c0 -64 2 -70 20 -70 19 0 20 4 14 37 -6 32 -5 35 10 30 10
-4 22 -7 28 -7 5 0 7 -12 3 -30 -6 -26 -4 -30 14 -30 22 0 22 1 25 102 1 30
-3 38 -16 38 -13 0 -18 -8 -18 -25 0 -20 -5 -25 -26 -25 -23 0 -25 3 -20 25 5
20 3 25 -14 25 -18 0 -20 -6 -20 -70z"/>
<path d="M1130 390 c0 -56 3 -70 15 -70 12 0 15 14 15 70 0 56 -3 70 -15 70
-12 0 -15 -14 -15 -70z"/>
<path d="M1460 445 c0 -8 3 -15 8 -15 4 0 5 -22 4 -50 -4 -55 -5 -54 66 -64
l42 -6 0 45 c0 43 -1 45 -30 45 -32 0 -40 -14 -15 -24 25 -9 17 -28 -12 -24
-24 3 -27 8 -29 41 -1 37 0 37 38 37 27 0 38 4 38 15 0 12 -13 15 -55 15 -42
0 -55 -3 -55 -15z"/>
<path d="M1590 445 c0 -8 4 -15 9 -15 5 0 7 -27 6 -60 l-3 -60 42 6 c63 9 70
12 57 27 -6 8 -23 12 -42 9 -26 -4 -30 -2 -27 14 3 13 11 18 26 17 14 -2 22 3
22 12 0 9 -10 15 -25 15 -14 0 -25 5 -25 10 0 6 16 10 35 10 24 0 35 5 35 15
0 12 -13 15 -55 15 -42 0 -55 -3 -55 -15z"/>
</g>
</svg>
